<?xml version="1.0" encoding="UTF-8"?>
<!DOCTYPE svg
PUBLIC "-//W3C//DTD SVG 1.1//EN"
       "http://www.w3.org/Graphics/SVG/1.1/DTD/svg11.dtd">
<svg viewBox="21 181 799 953" width="778px" height="772px" xmlns="http://www.w3.org/2000/svg" version="1.1">
   <line x1="496" y1="246" x2="506" y2="246" style="stroke:#b0b;stroke-width:1;"/>
   <line x1="534" y1="469" x2="524" y2="469" style="stroke:#b0b;stroke-width:1;"/>
   <line x1="506" y1="246" x2="534" y2="469" style="stroke:#b0b;stroke-width:1;"/>
   <line x1="503.5" y1="246" x2="499.96446609407" y2="249.53553390593" style="stroke:#b0b;stroke-width:2;"/>
   <line x1="503.5" y1="246" x2="499.96446609407" y2="242.46446609407" style="stroke:#b0b;stroke-width:2;"/>
   <line x1="529" y1="469" x2="532.53553390593" y2="472.53553390593" style="stroke:#b0b;stroke-width:2;"/>
   <line x1="529" y1="469" x2="532.53553390593" y2="465.46446609407" style="stroke:#b0b;stroke-width:2;"/>
   <line x1="326" y1="828" x2="316" y2="828" style="stroke:#0bf;stroke-width:1;"/>
   <line x1="316" y1="469" x2="326" y2="469" style="stroke:#0bf;stroke-width:1;"/>
   <line x1="316" y1="828" x2="316" y2="469" style="stroke:#0bf;stroke-width:1;"/>
   <line x1="318.5" y1="828" x2="322.03553390593" y2="831.53553390593" style="stroke:#0bf;stroke-width:2;"/>
   <line x1="318.5" y1="828" x2="322.03553390593" y2="824.46446609407" style="stroke:#0bf;stroke-width:2;"/>
   <line x1="321" y1="469" x2="317.46446609407" y2="472.53553390593" style="stroke:#0bf;stroke-width:2;"/>
   <line x1="321" y1="469" x2="317.46446609407" y2="465.46446609407" style="stroke:#0bf;stroke-width:2;"/>
   <line x1="658" y1="584" x2="648" y2="584" style="stroke:#bbb;stroke-width:1;"/>
   <line x1="642" y1="446" x2="652" y2="446" style="stroke:#bbb;stroke-width:1;"/>
   <line x1="648" y1="584" x2="642" y2="446" style="stroke:#bbb;stroke-width:1;"/>
   <line x1="650.5" y1="584" x2="654.03553390593" y2="587.53553390593" style="stroke:#bbb;stroke-width:2;"/>
   <line x1="650.5" y1="584" x2="654.03553390593" y2="580.46446609407" style="stroke:#bbb;stroke-width:2;"/>
   <line x1="647" y1="446" x2="643.46446609407" y2="449.53553390593" style="stroke:#bbb;stroke-width:2;"/>
   <line x1="647" y1="446" x2="643.46446609407" y2="442.46446609407" style="stroke:#bbb;stroke-width:2;"/>
   <line x1="326" y1="489" x2="316" y2="489" style="stroke:#cb0;stroke-width:1;"/>
   <line x1="210" y1="492" x2="200" y2="492" style="stroke:#cb0;stroke-width:1;"/>
   <line x1="316" y1="489" x2="210" y2="492" style="stroke:#cb0;stroke-width:1;"/>
   <line x1="318.5" y1="489" x2="322.03553390593" y2="492.53553390593" style="stroke:#cb0;stroke-width:2;"/>
   <line x1="318.5" y1="489" x2="322.03553390593" y2="485.46446609407" style="stroke:#cb0;stroke-width:2;"/>
   <line x1="205" y1="492" x2="208.53553390593" y2="495.53553390593" style="stroke:#cb0;stroke-width:2;"/>
   <line x1="205" y1="492" x2="208.53553390593" y2="488.46446609407" style="stroke:#cb0;stroke-width:2;"/>
   <line x1="652" y1="466" x2="642" y2="466" style="stroke:#0bf;stroke-width:1;"/>
   <line x1="534" y1="469" x2="524" y2="469" style="stroke:#0bf;stroke-width:1;"/>
   <line x1="642" y1="466" x2="534" y2="469" style="stroke:#0bf;stroke-width:1;"/>
   <line x1="644.5" y1="466" x2="648.03553390593" y2="469.53553390593" style="stroke:#0bf;stroke-width:2;"/>
   <line x1="644.5" y1="466" x2="648.03553390593" y2="462.46446609407" style="stroke:#0bf;stroke-width:2;"/>
   <line x1="529" y1="469" x2="532.53553390593" y2="472.53553390593" style="stroke:#0bf;stroke-width:2;"/>
   <line x1="529" y1="469" x2="532.53553390593" y2="465.46446609407" style="stroke:#0bf;stroke-width:2;"/>
   <rect width="133" height="20" x="363" y="196" style="fill:#007;stroke:black;"/>
   <text width="133" height="20" x="368" y="210" style="fill:#fff;" font-family="Arial" font-size="16px"> actividades</text>
   <rect width="133" height="20" x="363" y="216" style="fill:#aea;stroke:black;"/>
   <text width="133" height="20" x="368" y="230" style="fill:black;" font-family="Arial" font-size="16px">id_actividad</text>
   <rect width="133" height="20" x="363" y="236" style="fill:none;stroke:black;"/>
   <text width="133" height="20" x="368" y="250" style="fill:black;" font-family="Arial" font-size="16px">id_proyecto</text>
   <rect width="133" height="20" x="363" y="256" style="fill:none;stroke:black;"/>
   <text width="133" height="20" x="368" y="270" style="fill:black;" font-family="Arial" font-size="16px">nombre</text>
   <rect width="133" height="20" x="363" y="276" style="fill:none;stroke:black;"/>
   <text width="133" height="20" x="368" y="290" style="fill:black;" font-family="Arial" font-size="16px">fecha_aprobacion</text>
   <rect width="133" height="20" x="363" y="296" style="fill:none;stroke:black;"/>
   <text width="133" height="20" x="368" y="310" style="fill:black;" font-family="Arial" font-size="16px">fecha_finalizacion</text>
   <rect width="122" height="20" x="326" y="778" style="fill:#007;stroke:black;"/>
   <text width="122" height="20" x="331" y="792" style="fill:#fff;" font-family="Arial" font-size="16px"> bugs</text>
   <rect width="122" height="20" x="326" y="798" style="fill:#aea;stroke:black;"/>
   <text width="122" height="20" x="331" y="812" style="fill:black;" font-family="Arial" font-size="16px">id_bug</text>
   <rect width="122" height="20" x="326" y="818" style="fill:none;stroke:black;"/>
   <text width="122" height="20" x="331" y="832" style="fill:black;" font-family="Arial" font-size="16px">id_proyecto</text>
   <rect width="122" height="20" x="326" y="838" style="fill:none;stroke:black;"/>
   <text width="122" height="20" x="331" y="852" style="fill:black;" font-family="Arial" font-size="16px">descripcion</text>
   <rect width="122" height="20" x="326" y="858" style="fill:none;stroke:black;"/>
   <text width="122" height="20" x="331" y="872" style="fill:black;" font-family="Arial" font-size="16px">fecha_deteccion</text>
   <rect width="122" height="20" x="326" y="878" style="fill:none;stroke:black;"/>
   <text width="122" height="20" x="331" y="892" style="fill:black;" font-family="Arial" font-size="16px">fecha_solucion</text>
   <rect width="122" height="20" x="326" y="898" style="fill:none;stroke:black;"/>
   <text width="122" height="20" x="331" y="912" style="fill:black;" font-family="Arial" font-size="16px">severidad</text>
   <rect width="122" height="20" x="326" y="918" style="fill:none;stroke:black;"/>
   <text width="122" height="20" x="331" y="932" style="fill:black;" font-family="Arial" font-size="16px">estado</text>
   <rect width="126" height="20" x="658" y="534" style="fill:#007;stroke:black;"/>
   <text width="126" height="20" x="663" y="548" style="fill:#fff;" font-family="Arial" font-size="16px"> casos_prueba</text>
   <rect width="126" height="20" x="658" y="554" style="fill:#aea;stroke:black;"/>
   <text width="126" height="20" x="663" y="568" style="fill:black;" font-family="Arial" font-size="16px">id_caso</text>
   <rect width="126" height="20" x="658" y="574" style="fill:none;stroke:black;"/>
   <text width="126" height="20" x="663" y="588" style="fill:black;" font-family="Arial" font-size="16px">id_requerimiento</text>
   <rect width="126" height="20" x="658" y="594" style="fill:none;stroke:black;"/>
   <text width="126" height="20" x="663" y="608" style="fill:black;" font-family="Arial" font-size="16px">estado</text>
   <rect width="164" height="20" x="36" y="462" style="fill:#007;stroke:black;"/>
   <text width="164" height="20" x="41" y="476" style="fill:#fff;" font-family="Arial" font-size="16px"> clientes</text>
   <rect width="164" height="20" x="36" y="482" style="fill:#aea;stroke:black;"/>
   <text width="164" height="20" x="41" y="496" style="fill:black;" font-family="Arial" font-size="16px">id_cliente</text>
   <rect width="164" height="20" x="36" y="502" style="fill:none;stroke:black;"/>
   <text width="164" height="20" x="41" y="516" style="fill:black;" font-family="Arial" font-size="16px">nombre</text>
   <rect width="164" height="20" x="36" y="522" style="fill:none;stroke:black;"/>
   <text width="164" height="20" x="41" y="536" style="fill:black;" font-family="Arial" font-size="16px">sector</text>
   <rect width="164" height="20" x="36" y="542" style="fill:none;stroke:black;"/>
   <text width="164" height="20" x="41" y="556" style="fill:black;" font-family="Arial" font-size="16px">importancia_en_sector</text>
   <rect width="164" height="20" x="36" y="562" style="fill:none;stroke:black;"/>
   <text width="164" height="20" x="41" y="576" style="fill:black;" font-family="Arial" font-size="16px">pais</text>
   <rect width="198" height="20" x="326" y="439" style="fill:#007;stroke:black;"/>
   <text width="198" height="20" x="331" y="453" style="fill:#fff;" font-family="Arial" font-size="16px"> proyectos</text>
   <rect width="198" height="20" x="326" y="459" style="fill:#aea;stroke:black;"/>
   <text width="198" height="20" x="331" y="473" style="fill:black;" font-family="Arial" font-size="16px">id_proyecto</text>
   <rect width="198" height="20" x="326" y="479" style="fill:none;stroke:black;"/>
   <text width="198" height="20" x="331" y="493" style="fill:black;" font-family="Arial" font-size="16px">id_cliente</text>
   <rect width="198" height="20" x="326" y="499" style="fill:none;stroke:black;"/>
   <text width="198" height="20" x="331" y="513" style="fill:black;" font-family="Arial" font-size="16px">nombre_proyecto</text>
   <rect width="198" height="20" x="326" y="519" style="fill:none;stroke:black;"/>
   <text width="198" height="20" x="331" y="533" style="fill:black;" font-family="Arial" font-size="16px">fecha_inicio</text>
   <rect width="198" height="20" x="326" y="539" style="fill:none;stroke:black;"/>
   <text width="198" height="20" x="331" y="553" style="fill:black;" font-family="Arial" font-size="16px">fecha_estimada</text>
   <rect width="198" height="20" x="326" y="559" style="fill:none;stroke:black;"/>
   <text width="198" height="20" x="331" y="573" style="fill:black;" font-family="Arial" font-size="16px">fecha_final</text>
   <rect width="198" height="20" x="326" y="579" style="fill:none;stroke:black;"/>
   <text width="198" height="20" x="331" y="593" style="fill:black;" font-family="Arial" font-size="16px">presupuesto</text>
   <rect width="198" height="20" x="326" y="599" style="fill:none;stroke:black;"/>
   <text width="198" height="20" x="331" y="613" style="fill:black;" font-family="Arial" font-size="16px">costo_final</text>
   <rect width="198" height="20" x="326" y="619" style="fill:none;stroke:black;"/>
   <text width="198" height="20" x="331" y="633" style="fill:black;" font-family="Arial" font-size="16px">tamano_proyecto</text>
   <rect width="198" height="20" x="326" y="639" style="fill:none;stroke:black;"/>
   <text width="198" height="20" x="331" y="653" style="fill:black;" font-family="Arial" font-size="16px">complejidad</text>
   <rect width="198" height="20" x="326" y="659" style="fill:none;stroke:black;"/>
   <text width="198" height="20" x="331" y="673" style="fill:black;" font-family="Arial" font-size="16px">tamano_equipo</text>
   <rect width="198" height="20" x="326" y="679" style="fill:none;stroke:black;"/>
   <text width="198" height="20" x="331" y="693" style="fill:black;" font-family="Arial" font-size="16px">porcentaje_modularizacion</text>
   <rect width="198" height="20" x="326" y="699" style="fill:none;stroke:black;"/>
   <text width="198" height="20" x="331" y="713" style="fill:black;" font-family="Arial" font-size="16px">nivel_satisfaccion</text>
   <rect width="126" height="20" x="652" y="416" style="fill:#007;stroke:black;"/>
   <text width="126" height="20" x="657" y="430" style="fill:#fff;" font-family="Arial" font-size="16px"> requerimientos</text>
   <rect width="126" height="20" x="652" y="436" style="fill:#aea;stroke:black;"/>
   <text width="126" height="20" x="657" y="450" style="fill:black;" font-family="Arial" font-size="16px">id_requerimiento</text>
   <rect width="126" height="20" x="652" y="456" style="fill:none;stroke:black;"/>
   <text width="126" height="20" x="657" y="470" style="fill:black;" font-family="Arial" font-size="16px">id_proyecto</text>
   <rect width="126" height="20" x="652" y="476" style="fill:none;stroke:black;"/>
   <text width="126" height="20" x="657" y="490" style="fill:black;" font-family="Arial" font-size="16px">descripcion</text>
</svg>
